<svg xmlns="http://www.w3.org/2000/svg" viewBox="0 0 900 650" role="img" aria-label="4K Smart TV">
  <defs>
    <linearGradient id="bg" x1="0" y1="0" x2="1" y2="1"><stop offset="0" stop-color="#db2777"/><stop offset="1" stop-color="#7c3aed"/></linearGradient>
    <linearGradient id="screen" x1="0" y1="0" x2="1" y2="1"><stop offset="0" stop-color="#111827"/><stop offset="0.45" stop-color="#2563eb"/><stop offset="1" stop-color="#22d3ee"/></linearGradient>
    <filter id="shadow" x="-20%" y="-20%" width="140%" height="140%"><feDropShadow dx="0" dy="22" stdDeviation="24" flood-color="#0f172a" flood-opacity=".28"/></filter>
  </defs>
  <rect width="900" height="650" rx="42" fill="url(#bg)"/>
  <circle cx="125" cy="115" r="88" fill="#ffffff" opacity=".18"/>
  <circle cx="795" cy="540" r="120" fill="#ffffff" opacity=".12"/>
  <g filter="url(#shadow)">
    <rect x="105" y="115" width="690" height="390" rx="34" fill="#050816"/>
    <rect x="132" y="142" width="636" height="336" rx="20" fill="url(#screen)"/>
    <path d="M170 405 C260 300 330 355 415 250 C485 165 575 215 710 165" fill="none" stroke="#fff" stroke-opacity=".55" stroke-width="12" stroke-linecap="round"/>
    <circle cx="650" cy="230" r="55" fill="#fbbf24" opacity=".9"/>
    <rect x="410" y="505" width="80" height="42" rx="10" fill="#111827"/>
    <rect x="310" y="545" width="280" height="22" rx="11" fill="#111827"/>
  </g>
  <rect x="80" y="70" width="210" height="70" rx="35" fill="#fff" opacity=".95"/>
  <text x="185" y="116" text-anchor="middle" font-family="Arial, Helvetica, sans-serif" font-size="38" font-weight="900" fill="#111827">55”</text>
  <text x="450" y="606" text-anchor="middle" font-family="Arial, Helvetica, sans-serif" font-size="34" font-weight="900" fill="#fff">4K Smart TV</text>
</svg>